<svg width="310" height="95" viewBox="0 0 310 95" fill="none" xmlns="http://www.w3.org/2000/svg">
<path d="M134.828 25.4971H131.341L122.045 13.1331L119.377 15.5037V25.4971H116.412V-0.000259399H119.377V12.6451L130.94 -0.000259399H134.445L124.191 11.0744L134.828 25.4971Z" fill="white"/>
<path d="M139.913 12.9147C139.913 16.3147 140.648 18.8933 142.12 20.652C143.589 22.4093 145.727 23.288 148.529 23.288C151.355 23.288 153.487 22.412 154.929 20.66C156.371 18.908 157.092 16.3267 157.092 12.9147C157.092 9.53735 156.373 6.97601 154.937 5.22935C153.503 3.48401 151.377 2.61068 148.564 2.61068C145.739 2.61068 143.589 3.48935 142.12 5.24668C140.648 7.00401 139.913 9.56001 139.913 12.9147ZM160.232 12.9147C160.232 16.9333 159.199 20.0933 157.136 22.3947C155.072 24.696 152.203 25.8467 148.529 25.8467C144.773 25.8467 141.875 24.716 139.835 22.4547C137.795 20.1933 136.773 17.0027 136.773 12.88C136.773 8.79335 137.797 5.62401 139.844 3.37467C141.889 1.12534 144.797 1.52588e-05 148.564 1.52588e-05C152.227 1.52588e-05 155.087 1.14533 157.144 3.43467C159.201 5.724 160.232 8.88535 160.232 12.9147Z" fill="white"/>
<path d="M185.248 25.4971H181.864L167.929 4.09841H167.791C167.976 6.60907 168.069 8.91173 168.069 11.0037V25.4971H165.331V-0.000259399H168.68L182.58 21.3117H182.719C182.696 20.9971 182.643 19.9891 182.561 18.2851C182.48 16.5824 182.451 15.3637 182.475 14.6317V-0.000259399H185.248V25.4971Z" fill="white"/>
<path d="M194.509 12.3477H198.573C200.665 12.3477 202.2 11.9317 203.177 11.1011C204.153 10.2691 204.643 9.0224 204.643 7.35973C204.643 5.67307 204.144 4.45841 203.149 3.71441C202.156 2.97041 200.561 2.59841 198.364 2.59841H194.509V12.3477ZM194.509 14.8931V25.4971H191.544V-0.000259399H198.537C201.665 -0.000259399 203.976 0.598404 205.471 1.79574C206.964 2.9944 207.711 4.79573 207.711 7.20239C207.711 10.5744 206.001 12.8531 202.584 14.0397L209.508 25.4971H206.001L199.828 14.8931H194.509Z" fill="white"/>
<path d="M227.779 14.7184L224.815 6.81839C224.431 5.81973 224.035 4.59307 223.629 3.13973C223.372 4.2544 223.007 5.48239 222.531 6.81839L219.531 14.7184H227.779ZM231.877 25.4971L228.703 17.3877H218.484L215.345 25.4971H212.345L222.383 0.00239372H224.961L234.948 25.4971H231.877Z" fill="white"/>
<path d="M255.667 12.6091C255.667 9.28373 254.832 6.7784 253.164 5.09173C251.495 3.4064 249.016 2.56374 245.725 2.56374H241.419V22.9331H245.028C248.563 22.9331 251.219 22.0651 252.999 20.3264C254.776 18.5877 255.667 16.0157 255.667 12.6091ZM258.807 12.5037C258.807 16.7131 257.663 19.9317 255.379 22.1571C253.093 24.3851 249.807 25.4971 245.516 25.4971H238.453V-0.000259399H246.265C250.231 -0.000259399 253.311 1.0984 255.509 3.29574C257.707 5.49307 258.807 8.5624 258.807 12.5037Z" fill="white"/>
<path d="M128.964 49.385C127.255 43.8863 126.292 40.7757 126.077 40.0557C125.863 39.333 125.708 38.7637 125.615 38.345C125.231 39.8343 124.133 43.5143 122.319 49.385H128.964ZM132.103 59.9893L130.255 53.9197H120.959L119.109 59.9893H113.285L122.244 34.4917H128.927L137.927 59.9893H132.103Z" fill="white"/>
<path d="M157.425 47.1357C157.425 41.6597 155.007 38.921 150.171 38.921H147.293V55.5237H149.612C154.82 55.5237 157.425 52.7277 157.425 47.1357ZM163.04 46.9957C163.04 51.193 161.847 54.4077 159.457 56.6397C157.068 58.873 153.617 59.9893 149.107 59.9893H141.887V34.4917H149.892C154.053 34.4917 157.287 35.5903 159.588 37.7877C161.891 39.985 163.04 43.0543 163.04 46.9957Z" fill="white"/>
<path d="M183.011 59.9893H168.325V34.4917H183.011V38.921H173.732V44.5197H182.365V48.949H173.732V55.5237H183.011V59.9893Z" fill="white"/>
<path d="M211.327 59.9893H204.456L193.365 40.6997H193.207C193.428 44.1063 193.537 46.537 193.537 47.9903V59.9893H188.707V34.4917H195.528L206.601 53.5877H206.723C206.549 50.2743 206.463 47.9317 206.463 46.5597V34.4917H211.327V59.9893Z" fill="white"/>
<path d="M231.056 49.385C229.347 43.8863 228.384 40.7757 228.169 40.0557C227.953 39.333 227.8 38.7637 227.707 38.345C227.323 39.8343 226.224 43.5143 224.411 49.385H231.056ZM234.196 59.9893L232.347 53.9197H223.051L221.201 59.9893H215.376L224.336 34.4917H231.02L240.02 59.9893H234.196Z" fill="white"/>
<path d="M263.708 34.4919V50.9893C263.708 52.8733 263.287 54.5253 262.444 55.9426C261.6 57.3614 260.383 58.4478 258.791 59.2041C257.197 59.9598 255.313 60.3374 253.14 60.3374C249.861 60.3374 247.315 59.4989 245.501 57.8171C243.688 56.1385 242.78 53.8386 242.78 50.9199V34.4919H248.169V50.0999C248.169 52.0653 248.564 53.5066 249.356 54.4253C250.145 55.3439 251.453 55.8041 253.279 55.8041C255.047 55.8041 256.328 55.3413 257.125 54.4159C257.92 53.4933 258.319 52.0426 258.319 50.0653V34.4919H263.708Z" fill="white"/>
<path d="M283.907 59.9893H269.223V34.4917H283.907V38.921H274.629V44.5197H283.261V48.949H274.629V55.5237H283.907V59.9893Z" fill="white"/>
<path d="M294.801 45.8103H296.544C298.253 45.8103 299.516 45.525 300.329 44.9557C301.143 44.3863 301.549 43.4903 301.549 42.269C301.549 41.061 301.135 40.1997 300.304 39.689C299.472 39.177 298.184 38.921 296.44 38.921H294.801V45.8103ZM294.801 50.205V59.9893H289.395V34.4917H296.823C300.288 34.4917 302.852 35.1223 304.515 36.3823C306.177 37.645 307.009 39.561 307.009 42.1303C307.009 43.6303 306.595 44.9637 305.771 46.133C304.944 47.301 303.776 48.217 302.264 48.8797C306.101 54.6117 308.601 58.3142 309.764 59.9893H303.764L297.679 50.205H294.801Z" fill="white"/>
<path d="M131.544 87.0586C131.544 89.3613 130.716 91.1742 129.059 92.4998C127.403 93.8253 125.097 94.4878 122.144 94.4878C119.423 94.4878 117.017 93.9774 114.924 92.9529V87.9305C116.644 88.6971 118.101 89.2383 119.293 89.5529C120.484 89.8665 121.575 90.0237 122.563 90.0237C123.749 90.0237 124.659 89.7971 125.292 89.3425C125.925 88.8894 126.244 88.2159 126.244 87.3195C126.244 86.8211 126.103 86.3758 125.824 85.9862C125.545 85.5971 125.136 85.2227 124.595 84.8613C124.055 84.5013 122.952 83.9253 121.291 83.1346C119.732 82.4023 118.563 81.6987 117.784 81.0253C117.005 80.3503 116.383 79.5649 115.919 78.669C115.453 77.7742 115.221 76.7279 115.221 75.5305C115.221 73.2758 115.984 71.5013 117.515 70.2118C119.043 68.9211 121.156 68.2758 123.853 68.2758C125.179 68.2758 126.443 68.4331 127.647 68.7466C128.851 69.0597 130.108 69.5023 131.421 70.0717L129.679 74.2742C128.317 73.717 127.193 73.3279 126.304 73.1065C125.415 72.8862 124.539 72.7758 123.679 72.7758C122.655 72.7758 121.871 73.0133 121.324 73.4903C120.777 73.9679 120.505 74.5894 120.505 75.357C120.505 75.8331 120.616 76.2493 120.836 76.6039C121.057 76.9586 121.409 77.3013 121.892 77.6331C122.373 77.9638 123.516 78.5597 125.319 79.4195C127.701 80.5597 129.336 81.7013 130.219 82.8466C131.103 83.9919 131.544 85.3955 131.544 87.0586Z" fill="white"/>
<path d="M146.716 94.4878H141.309V73.4894H134.387V68.9894H153.641V73.4894H146.716V94.4878Z" fill="white"/>
<path d="M158.555 94.4878V68.9894H163.963V94.4878H158.555Z" fill="white"/>
<path d="M175.465 94.4878H170.145V68.9894H184.76V73.4195H175.465V79.9946H184.115V84.4065H175.465V94.4878Z" fill="white"/>
<path d="M200.677 94.4878H195.271V73.4894H188.347V68.9894H207.6V73.4894H200.677V94.4878Z" fill="white"/>
<path d="M232.699 68.9892V85.1209C232.699 87.0048 232.277 88.6567 231.433 90.0739C230.591 91.4927 229.372 92.5807 227.78 93.3354C226.188 94.0917 224.304 94.4688 222.131 94.4688C218.852 94.4688 216.305 93.6286 214.491 91.949C212.677 90.2688 211.771 87.9704 211.771 85.0516V68.9892H217.16V84.2313C217.16 86.1969 217.555 87.6381 218.345 88.5568C219.136 89.4756 220.444 89.9354 222.269 89.9354C224.036 89.9354 225.317 89.4729 226.115 88.549C226.912 87.6234 227.309 86.1739 227.309 84.1969V68.9892H232.699Z" fill="white"/>
<path d="M261.731 94.4878H254.86L243.767 75.1987H243.609C243.831 78.605 243.941 81.0346 243.941 82.4878V94.4878H239.111V68.9894H245.929L257.004 88.0862H257.125C256.952 84.7731 256.864 82.4305 256.864 81.0586V68.9894H261.731V94.4878Z" fill="white"/>
<path d="M277.828 79.8211H287.943V93.0398C286.304 93.5758 284.76 93.9503 283.312 94.1665C281.864 94.381 280.385 94.4878 278.873 94.4878C275.025 94.4878 272.087 93.3586 270.059 91.0955C268.029 88.8346 267.015 85.5878 267.015 81.3561C267.015 77.2398 268.192 74.0305 270.547 71.7289C272.901 69.4263 276.164 68.2758 280.339 68.2758C282.955 68.2758 285.477 68.7998 287.908 69.8451L286.112 74.1706C284.252 73.2398 282.315 72.7758 280.304 72.7758C277.968 72.7758 276.095 73.5597 274.689 75.1289C273.281 76.6987 272.579 78.8091 272.579 81.4597C272.579 84.2279 273.144 86.3409 274.279 87.7998C275.412 89.2586 277.06 89.9894 279.223 89.9894C280.351 89.9894 281.496 89.8717 282.659 89.6398V84.3195H277.828V79.8211Z" fill="white"/>
<path d="M0 0.00245667V94.4878H32.4713L86.6867 0.00245667H0Z" fill="white"/>
<path d="M62.8347 76.0654L52.264 94.4878H94.4853V76.0654H62.8347Z" fill="white"/>
<path d="M94.4854 60.2588V20.9067L71.9067 60.2588H94.4854Z" fill="white"/>
</svg>
